<svg width="131" height="31" viewBox="0 0 131 31" fill="none" xmlns="http://www.w3.org/2000/svg">
<path d="M112.7 0C105.9 0 100.3 5.42993 100.3 12.242C100.3 18.9554 105.8 24.4841 112.7 24.4841C119.5 24.4841 125.1 19.0541 125.1 12.242C125.1 5.42993 119.5 0 112.7 0ZM122.3 5.42993C121.7 5.82483 121 6.21974 120.3 6.61464C119.9 5.82483 119.4 5.03503 118.8 4.34395C119.3 4.04777 119.8 3.65286 120.2 3.35668C121.1 3.85031 121.8 4.64012 122.3 5.42993ZM117.1 1.38216C118.1 1.77707 119 2.2707 119.9 2.96178C119.5 3.35668 119 3.65286 118.5 3.94904C117.9 3.25796 117.2 2.6656 116.5 2.07325C116.7 1.77707 116.9 1.57962 117.1 1.38216ZM118.1 4.14649C117.4 4.5414 116.7 4.73885 116 5.03503C115.7 4.34394 115.4 3.65286 115 3.06051C115.4 2.86305 115.8 2.6656 116.1 2.36942C116.8 2.86305 117.5 3.45541 118.1 4.14649ZM116.6 1.18471C116.4 1.38216 116.2 1.57962 116.1 1.77707C115.4 1.38216 114.8 0.98726 114 0.691082C114.9 0.691082 115.8 0.888534 116.6 1.18471ZM115.7 2.07325C115.4 2.2707 115.1 2.46815 114.8 2.56688C114.4 1.97452 114 1.48089 113.6 0.888534C114.3 1.18471 115 1.57962 115.7 2.07325ZM112.9 0.98726C113.4 1.48089 113.8 2.07325 114.2 2.76433C113.8 2.86305 113.4 2.96178 112.9 2.96178V0.98726ZM112.9 3.45541C113.4 3.45541 114 3.35668 114.5 3.15923C114.9 3.75159 115.2 4.44267 115.5 5.13375C114.7 5.3312 113.8 5.42993 112.9 5.52866V3.45541ZM112.4 0.98726V2.96178C112 2.96178 111.6 2.86305 111.1 2.76433C111.6 2.17197 112 1.57962 112.4 0.98726ZM110.7 2.56688C110.4 2.46815 110 2.2707 109.8 2.07325C110.5 1.67834 111.2 1.28344 111.9 0.98726C111.4 1.48089 111 1.97452 110.7 2.56688ZM111.4 0.592356C110.7 0.888534 110 1.28344 109.3 1.67834C109.1 1.48089 108.9 1.28344 108.8 1.08599C109.6 0.888534 110.5 0.691082 111.4 0.592356ZM119.9 21.5223C118.3 20.6337 118.2 19.3503 118.3 18.9554C118.4 18.4618 118.7 18.6592 118.9 18.6592C120 18.6592 121.1 18.363 122.5 16.8821C124.1 15.3025 124.6 11.7484 122.1 9.4777C119.5 7.00955 116.7 7.40445 114.9 9.67515C114.5 10.1688 113.6 10.465 112.9 10.465C111.7 10.465 112.5 11.3535 112.5 11.5509C112.5 11.7484 112.3 11.8471 112.2 11.8471C111.8 11.7484 112 12.3408 112 12.4395C112 12.5382 111.8 12.7357 111.8 12.7357C111.3 12.7357 111.4 13.1306 111.5 13.328C111.5 13.4267 111.5 13.6242 111.3 13.7229C111.1 13.8216 111 14.2165 111 14.5127C111 15.0064 111.5 15.4013 112.3 15.9936C113.1 16.586 113.2 17.1783 113.2 17.5732C113.2 17.9681 113.3 18.6592 113.4 19.0541C113.6 19.5478 113.6 20.535 112.5 20.535C111.1 20.6337 108.7 21.621 108.5 21.7197C107.7 22.0159 106.7 22.1146 105.9 21.9172C105.5 21.621 105.1 21.3248 104.7 20.9299C104.5 20.4363 104.8 19.8439 105.1 19.449C105.6 19.9427 106.2 19.8439 106.6 19.8439C107 19.8439 108.8 19.5478 109.1 19.449C109.4 19.3503 109.5 19.3503 109.6 19.449C110.3 19.7452 111.3 19.7452 111.7 18.4618C112.1 17.0796 111.2 17.4745 111 17.5732C110.9 17.672 110.7 17.5732 110.8 17.4745C111 17.1783 110.7 17.1783 110.6 17.1783C110.2 17.1783 109.7 17.5732 109.6 17.672C109.4 17.7707 109.3 17.7707 109.2 17.7707C108.7 17.4745 107.2 17.8694 106.7 17.0796C106.7 16.8821 106.3 13.6242 106.1 13.0318C106.1 12.9331 106 12.7357 106.2 12.5382C106.6 11.9458 107.6 12.5382 108.2 12.5382C108.9 12.5382 109 12.242 109.2 12.0446C109.4 11.8471 109.5 11.9458 109.6 11.8471C109.7 11.7484 109.6 11.6497 109.6 11.5509C109.6 11.4522 109.7 11.5509 109.8 11.4522C109.9 11.3535 109.8 11.156 109.8 11.0573C110 10.7611 110.4 10.9586 110.2 10.3662C110.1 9.97133 110.3 9.57642 110.5 9.37897C110.8 8.98407 112.1 7.207 109.9 5.3312C107.8 3.55414 105.6 3.75159 104.2 5.23248C102.8 6.71337 103.5 8.88534 103.6 9.4777C103.7 10.0701 103.3 10.5637 102.8 10.7611C102.4 10.9586 101.5 11.5509 100.9 12.0446C101 7.30572 103.9 3.15923 108.3 1.48089C108.5 1.67834 108.7 1.97452 108.9 2.17197C108.4 2.56688 107.3 3.45541 107.3 3.45541C107.3 3.45541 107.4 3.45541 107.6 3.55414C107.7 3.55414 107.9 3.65286 107.9 3.65286C107.9 3.65286 108.8 2.86305 109.3 2.56688C109.6 2.86305 110 3.06051 110.4 3.25796C110.2 3.65286 109.6 4.64012 109.6 4.64012C109.6 4.64012 109.7 4.73885 109.8 4.73885C109.9 4.83757 110 4.83757 110 4.83757C110 4.83757 110.6 3.75159 110.8 3.35668C111.3 3.55414 111.8 3.65286 112.3 3.65286V5.62738C112 5.62738 111.3 5.62738 111 5.52866H110.8L110.9 5.72611C111 5.82484 111 5.92356 111.1 6.02229C111.3 6.02229 112 6.02229 112.3 6.02229V9.67515H112.8V8.78662C113.6 8.78662 114.2 8.68789 114.9 8.58916L115.6 7.99681H115.2C114.4 8.09553 113.7 8.19426 113.1 8.19426C113.1 8.19426 112.9 8.19426 112.8 8.19426V5.92356C113.7 5.92356 114.7 5.82483 115.6 5.52866C115.8 6.12101 116.3 7.6019 116.3 7.6019L116.8 7.40445C116.8 7.40445 116.3 5.92356 116.1 5.3312C116.9 5.13375 117.6 4.73885 118.3 4.44267C118.9 5.13375 119.4 5.92356 119.8 6.71337C119.4 6.91082 118.8 7.10827 118.8 7.10827C119.3 7.207 119.7 7.30573 119.7 7.30573C119.7 7.30573 119.9 7.207 120 7.207C120 7.30573 120.1 7.50318 120.1 7.50318L120.8 7.79936L120.7 7.6019C120.7 7.6019 120.5 7.10827 120.4 7.00955C121.1 6.71337 121.8 6.31847 122.5 5.82483C123.8 7.70063 124.4 9.97133 124.4 12.242C124.6 15.9936 122.7 19.3503 119.9 21.5223Z" fill="#009EDB"/>
<path d="M99.1999 3.25839L98.9999 3.45585C98.2999 4.0482 96.5999 5.72654 96.8999 7.60234V7.70107L96.9999 8.09597L97.1999 7.89852C98.1999 7.00998 98.9999 5.43037 99.2999 3.6533L99.3999 3.15967L99.1999 3.25839Z" fill="#009EDB"/>
<path d="M95.8 6.41709L95.7 6.61454C95.6 6.91072 95.4 7.6018 95.3 8.39161C95.1 9.57632 95.2 11.3534 96.2 12.6368L96.3 12.8343L96.4 13.0317L96.6 12.2419C96.8 10.8598 96.5 7.9967 96 6.71326L95.8 6.31836V6.41709Z" fill="#009EDB"/>
<path d="M94.5999 11.3538V11.5512C94.4999 12.736 94.5999 15.7965 97.0999 17.4748L97.3999 17.6723V17.2774C97.3999 16.0926 95.9999 12.6372 94.9999 11.4525L94.6999 11.0576L94.5999 11.3538Z" fill="#009EDB"/>
<path d="M95 16.7834V16.9808C95.4 18.7579 97 21.5222 99.6 22.4108L100 22.5095L99.9 22.1146C99.4 20.8312 96.9 17.7707 95.3 16.7834L95 16.5859V16.7834Z" fill="#009EDB"/>
<path d="M100.3 5.92343L100 6.02216C98.1 7.20687 97.2 8.58904 97.2 10.3661V10.761L97.5 10.5636C98.5 9.67502 99.9 7.50305 100.2 6.31834L100.3 5.82471V5.92343Z" fill="#009EDB"/>
<path d="M99.1001 9.67539L99.0001 9.87284C98.5001 10.3665 96.9001 12.0448 97.0001 14.1181C97.0001 14.4142 97.1001 14.8091 97.2001 15.1053L97.3001 15.4015L97.5001 15.1053C98.3001 14.0193 99.3001 11.255 99.2001 9.97156V9.57666L99.1001 9.67539Z" fill="#009EDB"/>
<path d="M99.1999 13.3277L99.0999 13.5252C98.2999 14.7099 97.8999 15.8946 97.8999 17.0793C97.8999 17.8691 98.1999 18.6589 98.6999 19.4487L98.8999 19.7449L98.9999 19.4487C99.2999 18.7577 99.5999 16.6844 99.5999 15.0061C99.5999 14.4137 99.4999 13.9201 99.3999 13.6239L99.2999 13.229L99.1999 13.3277Z" fill="#009EDB"/>
<path d="M100.1 17.1784L99.9999 17.3759C99.7999 18.1657 99.5999 18.8568 99.6999 19.6466C99.6999 21.2262 100.5 22.5096 101.9 23.3981L102.1 23.4969L102.2 23.2007V22.9045C102.2 21.6211 101.2 18.2644 100.4 17.2771L100.2 16.981L100.1 17.1784Z" fill="#009EDB"/>
<path d="M97.4 22.3121L97.5 22.5096C98.5 24.1879 100.3 26.4586 103.6 25.8662H103.9L103.7 25.6688C103.1 24.7803 99.1 22.5096 97.7 22.3121L97.3 22.2134L97.4 22.3121Z" fill="#009EDB"/>
<path d="M102.3 26.656L101.8 26.7547L102.3 26.9521C104.4 27.8407 107 28.0381 108.6 27.5445C109.2 27.347 109.5 27.0509 109.9 26.656C112.6 26.9521 115.1 29.1241 116.6 30.9012L116.7 30.9999H116.8C117 30.9012 117.2 30.7037 117.3 30.605L117.4 30.5063L117.3 30.4075C115.8 28.433 113.4 27.2483 113.3 27.1496C111.1 26.1623 107.3 25.3725 102.3 26.656Z" fill="#009EDB"/>
<path d="M102.4 21.127V21.3245C102.7 23.299 103.5 25.8659 106.9 25.5697H107.1L107 25.3723C106.8 24.4837 103.7 21.9169 102.6 21.2258L102.3 21.0283L102.4 21.127Z" fill="#009EDB"/>
<path d="M126 3.06055L126.1 3.55418C126.4 5.33125 127.2 6.91086 128.2 7.7994L128.4 7.99685L128.5 7.60194V7.50322C128.8 5.62742 127.1 3.94908 126.4 3.35673L126.2 3.15927L126 3.06055Z" fill="#009EDB"/>
<path d="M129.5 6.21973L129.3 6.61463C128.8 7.89807 128.6 10.7611 128.7 12.1433L128.9 12.9331L129 12.8344L129.1 12.6369C130.2 11.3535 130.2 9.67514 130 8.3917C129.9 7.50316 129.7 6.91081 129.6 6.61463L129.5 6.41718V6.21973Z" fill="#009EDB"/>
<path d="M130.8 11.1558L130.5 11.5507C129.5 12.8341 128.1 16.1908 128.1 17.3755V17.7704L128.4 17.573C130.9 15.9933 131 12.9328 130.9 11.6494V11.4519L130.8 11.1558Z" fill="#009EDB"/>
<path d="M130.4 16.5859L130 16.7834C128.4 17.7707 125.9 20.8312 125.4 22.1146L125.3 22.5095L125.7 22.4108C128.3 21.621 130 18.7579 130.3 16.9808V16.7834L130.4 16.5859Z" fill="#009EDB"/>
<path d="M125.1 5.72607L125.2 6.2197C125.6 7.50314 126.8 9.67511 127.9 10.5636L128.2 10.7611V10.3662C128.3 8.58913 127.4 7.20696 125.5 6.02225L125.3 5.92353L125.1 5.72607Z" fill="#009EDB"/>
<path d="M126.2 9.57666V9.97156C126.1 11.255 127.2 14.1181 127.9 15.1053L128.1 15.4015L128.2 15.1053C128.3 14.7104 128.4 14.4142 128.4 14.1181C128.5 12.0448 126.9 10.3665 126.4 9.87284L126.3 9.77411L126.2 9.57666Z" fill="#009EDB"/>
<path d="M126.1 13.1304L126 13.5253C125.9 13.8215 125.8 14.3151 125.8 14.9074C125.8 16.5858 126 18.659 126.4 19.3501L126.5 19.6463L126.7 19.3501C127.2 18.659 127.5 17.8692 127.5 16.9807C127.5 15.8947 127.1 14.6113 126.3 13.4265L126.2 13.2291L126.1 13.1304Z" fill="#009EDB"/>
<path d="M125.2 16.981L125 17.2771C124.2 18.2644 123.2 21.6211 123.2 22.9045C123.2 22.9045 123.2 23.102 123.2 23.2007L123.3 23.4969L123.5 23.3981C124.9 22.5096 125.6 21.2262 125.7 19.6466C125.7 18.9555 125.6 18.1657 125.4 17.3759L125.3 17.1784L125.2 16.981Z" fill="#009EDB"/>
<path d="M128.1 22.1147L127.7 22.2135C126.3 22.4109 122.3 24.6816 121.7 25.5702L121.5 25.7676H121.8C125.1 26.36 126.9 24.0893 127.9 22.4109L128 22.2135L128.1 22.1147Z" fill="#009EDB"/>
<path d="M112.2 27.1496C112.1 27.1496 109.7 28.433 108.2 30.4075L108.1 30.5063L108.2 30.605C108.3 30.7037 108.6 30.9012 108.7 30.9999H108.8L108.9 30.9012C110.4 29.1241 112.9 26.8534 115.6 26.656C116 27.0509 116.4 27.347 116.9 27.5445C118.4 28.0381 121.1 27.8407 123.2 26.9521L123.7 26.7547L123.2 26.656C118.1 25.3725 114.3 26.1623 112.2 27.1496Z" fill="#009EDB"/>
<path d="M123 20.9302L122.7 21.1276C121.6 21.8187 118.6 24.3856 118.3 25.2741L118.2 25.4716H118.4C121.7 25.7677 122.5 23.2009 122.9 21.2264V21.0289L123 20.9302Z" fill="#009EDB"/>
<path d="M38.6 1.18506H42.8V4.93665H38.6V1.18506ZM39 9.28059H42.5V27.6436H39V9.28059Z" fill="#009EDB"/>
<path d="M12.5 9.28027H16V27.6433H12.6V24.9777H12.5C11.1 27.2484 8.7 28.2357 6.1 28.2357C2.2 28.2357 0 25.2739 0 21.621V9.28027H3.5V20.1401C3.5 23.2994 4.2 25.6688 7.6 25.6688C9 25.6688 11 24.9777 11.7 23.0032C12.4 21.3248 12.4 19.1529 12.4 18.6592V9.28027H12.5Z" fill="#009EDB"/>
<path d="M23 11.9455C24.3 9.67476 26.8 8.6875 28.7 8.6875C30 8.6875 35.7 8.98368 35.7 14.9072V27.5442H32.2V15.9932C32.2 12.9327 30.9 11.3531 27.9 11.3531C27.9 11.3531 26 11.2544 24.5 12.7353C24 13.2289 23 14.0187 23 17.6716V27.6429H19.5V9.27986H23V11.9455Z" fill="#009EDB"/>
<path d="M57.2 15.1047C57 12.834 55.9 11.2544 53.4 11.2544C50.1 11.2544 48.8 14.1174 48.8 18.3626C48.8 22.6079 50.1 25.4709 53.4 25.4709C55.7 25.4709 57.1 23.99 57.3 21.3244H60.8C60.5 25.4709 57.4 27.9391 53.3 27.9391C47.4 27.9391 45 23.7926 45 18.4614C45 13.1302 47.7 8.6875 53.6 8.6875C57.5 8.6875 60.4 11.1557 60.6 15.1047H57.2Z" fill="#009EDB"/>
<path d="M66 19.0541C65.7 22.2134 67.1 25.57 70.6 25.57C73.3 25.57 74.7 24.4841 75.1 21.8185H78.8001C78.2001 25.9649 75 28.0382 70.6 28.0382C64.7 28.0382 62.3 23.8917 62.3 18.5605C62.3 13.2293 65.0001 8.78662 70.9001 8.78662C76.4001 8.88535 79 12.3408 79 17.3758V19.0541H66ZM75.4001 16.6847C75.5001 13.6242 74.1 11.2548 70.7 11.2548C67.8 11.2548 66.1 13.7229 66.1 16.6847H75.4001Z" fill="#009EDB"/>
<path d="M83 27.4456V11.6494H79.8V9.27997H83V5.33092C83.1 1.38188 86.2 0.295898 88.8 0.295898C89.6 0.295898 90.5 0.49335 91.3 0.690802V3.55386C90.7 3.55386 90.1 3.45513 89.5 3.45513C87.5 3.45513 86.4 3.94876 86.5 5.92328V9.27997H90.8V11.6494H86.5V27.4456H83Z" fill="#009EDB"/>
</svg>
